<svg xmlns="http://www.w3.org/2000/svg" viewBox="0 0 116.26 42.4"><defs><style>.cls-1{fill:#ec674d;}</style></defs><g id="Layer_2" data-name="Layer 2"><g id="Layer_1-2" data-name="Layer 1"><path class="cls-1" d="M7.36,30.1h11.8l17.1-12.5.6-.4a4,4,0,0,0,1.6-2.2c.3-1.5-.7-2.4-3-2.4h-10L6.56,25.2a4,4,0,0,0-2.2,2.5Q3.91,30,7.36,30.1Zm7.1-4.4,2-1.4,10.7-7.7,1.6-1.2c1-.7,2-1,2.2-.6s-.4,1.3-1.4,2.1l-1.2.9-13.1,9.5a4.67,4.67,0,0,1-1,.5q-.9.3-1.2,0C12.86,27.3,13.46,26.4,14.46,25.7Z"/><path class="cls-1" d="M7.46,31.4A4.62,4.62,0,0,1,3.66,30a2.84,2.84,0,0,1-.6-2.6,5.82,5.82,0,0,1,1-1.9l.6-.6-.1-.1A9.75,9.75,0,0,0,2,27.1,8.76,8.76,0,0,0,.16,31a6.12,6.12,0,0,0,.5,4.3c.6,1.1,1.8,1.8,3.6,2.2,1.2.3,1.8.4,7.1.4h3.3l19-.2h.6v4.7h4.8l1.1-4.7,1.5-6.2H16.16C10.86,31.5,8.06,31.5,7.46,31.4Z"/><path class="cls-1" d="M38.56,5.1c-.8-.2-3.5-.4-11.3-.4H10.06l.4-4.7H5.26L2.66,10.9c24.7.1,31.3.2,32.8.2a6.65,6.65,0,0,1,2.1.3,3.37,3.37,0,0,1,1.7,1.1,3.41,3.41,0,0,1,.6,2.7,3.91,3.91,0,0,1-1,1.9l-.6.6.1.1A11.58,11.58,0,0,0,41,15.5a8.76,8.76,0,0,0,1.8-3.9,6.12,6.12,0,0,0-.5-4.3A5.47,5.47,0,0,0,38.56,5.1Z"/><polygon class="cls-1" points="65.06 15.9 65.06 12.6 50.56 12.6 50.56 16 59.86 16 50.36 26.9 50.36 30.1 64.86 30.1 64.86 26.7 55.66 26.7 65.06 15.9"/><path class="cls-1" d="M73.86,12.3c-5.2,0-8.9,3.7-8.9,9.1s3.6,9.1,9,9.1c4,0,6.7-1.7,8.1-4.9l.2-.4-3.7-.6-.1.2c-.8,1.5-2.2,2.2-4.4,2.2-3,0-4.8-1.6-5-4.4h13.3v-.3a9.6,9.6,0,0,0-2.3-7.4A7.78,7.78,0,0,0,73.86,12.3Zm-4.7,7a4.34,4.34,0,0,1,4.7-3.7c2.6,0,4.3,1.4,4.6,3.7Z"/><path class="cls-1" d="M84.66,8.4l-.4,2.4,2.1.2-1.9,9.5a59.76,59.76,0,0,0-1.2,6.9,3.09,3.09,0,0,0,.9,2.4,3.57,3.57,0,0,0,2.3.8,5.07,5.07,0,0,0,4.1-2.1l-.8-.9a2.06,2.06,0,0,1-1.4.7c-.7,0-1-.5-.8-1.6.2-.8,1.3-6.8,3.6-18.3h0l-.1-.3Z"/><path class="cls-1" d="M96.36,28.2h0c-.7,0-1-.5-.8-1.6.1-.6,1.3-6.7,3.6-18.2l-.1-.3-6.4.3-.4,2.4,2.1.2-1.9,9.5a59.76,59.76,0,0,0-1.2,6.9,3.09,3.09,0,0,0,.9,2.4,3.57,3.57,0,0,0,2.3.8,5.07,5.07,0,0,0,4.1-2.1l-.8-.9A3.28,3.28,0,0,1,96.36,28.2Z"/><path class="cls-1" d="M113.46,14.5a9.56,9.56,0,0,0-12.2,0,9,9,0,0,0-2.8,6.9,9.33,9.33,0,0,0,2.8,7,9.56,9.56,0,0,0,12.2,0,9,9,0,0,0,2.8-7A9,9,0,0,0,113.46,14.5Zm-6,12.5c-3,0-4.9-2.1-4.9-5.6s1.9-5.6,4.8-5.6,4.9,2.2,4.9,5.6S110.36,27,107.46,27Z"/></g></g></svg>
